<mxfile host="app.diagrams.net" modified="2023-07-20T03:37:38.247Z" agent="Mozilla/5.0 (Macintosh; Intel Mac OS X 10_15_7) AppleWebKit/537.36 (KHTML, like Gecko) Chrome/114.0.0.0 Safari/537.36" etag="Xpan2k9Q9sN0t_MIqsMp" version="21.6.3" type="github">
  <diagram name="페이지-1" id="MfIIVTcURro1327dH_zp">
    <mxGraphModel dx="2868" dy="1542" grid="1" gridSize="10" guides="1" tooltips="1" connect="1" arrows="1" fold="1" page="1" pageScale="1" pageWidth="827" pageHeight="1169" math="0" shadow="0">
      <root>
        <mxCell id="0" />
        <mxCell id="1" parent="0" />
        <mxCell id="ts-POBUd6PFqygl2_fgs-1" value="AWS Cloud" style="points=[[0,0],[0.25,0],[0.5,0],[0.75,0],[1,0],[1,0.25],[1,0.5],[1,0.75],[1,1],[0.75,1],[0.5,1],[0.25,1],[0,1],[0,0.75],[0,0.5],[0,0.25]];outlineConnect=0;gradientColor=none;html=1;whiteSpace=wrap;fontSize=12;fontStyle=0;container=1;pointerEvents=0;collapsible=0;recursiveResize=0;shape=mxgraph.aws4.group;grIcon=mxgraph.aws4.group_aws_cloud_alt;strokeColor=#232F3E;fillColor=none;verticalAlign=top;align=left;spacingLeft=30;fontColor=#232F3E;dashed=0;" vertex="1" parent="1">
          <mxGeometry x="110" y="120" width="1170" height="1040" as="geometry" />
        </mxCell>
        <mxCell id="ts-POBUd6PFqygl2_fgs-2" value="Region" style="points=[[0,0],[0.25,0],[0.5,0],[0.75,0],[1,0],[1,0.25],[1,0.5],[1,0.75],[1,1],[0.75,1],[0.5,1],[0.25,1],[0,1],[0,0.75],[0,0.5],[0,0.25]];outlineConnect=0;gradientColor=none;html=1;whiteSpace=wrap;fontSize=12;fontStyle=0;container=1;pointerEvents=0;collapsible=0;recursiveResize=0;shape=mxgraph.aws4.group;grIcon=mxgraph.aws4.group_region;strokeColor=#147EBA;fillColor=none;verticalAlign=top;align=left;spacingLeft=30;fontColor=#147EBA;" vertex="1" parent="ts-POBUd6PFqygl2_fgs-1">
          <mxGeometry x="40" y="110" width="1090" height="900" as="geometry" />
        </mxCell>
        <mxCell id="ts-POBUd6PFqygl2_fgs-3" value="" style="sketch=0;points=[[0,0,0],[0.25,0,0],[0.5,0,0],[0.75,0,0],[1,0,0],[0,1,0],[0.25,1,0],[0.5,1,0],[0.75,1,0],[1,1,0],[0,0.25,0],[0,0.5,0],[0,0.75,0],[1,0.25,0],[1,0.5,0],[1,0.75,0]];outlineConnect=0;fontColor=#232F3E;gradientColor=#60A337;gradientDirection=north;fillColor=#277116;strokeColor=#ffffff;dashed=0;verticalLabelPosition=bottom;verticalAlign=top;align=center;html=1;fontSize=12;fontStyle=0;aspect=fixed;shape=mxgraph.aws4.resourceIcon;resIcon=mxgraph.aws4.s3;" vertex="1" parent="ts-POBUd6PFqygl2_fgs-2">
          <mxGeometry x="30" y="403.5" width="78" height="78" as="geometry" />
        </mxCell>
        <mxCell id="ts-POBUd6PFqygl2_fgs-4" value="VPC" style="points=[[0,0],[0.25,0],[0.5,0],[0.75,0],[1,0],[1,0.25],[1,0.5],[1,0.75],[1,1],[0.75,1],[0.5,1],[0.25,1],[0,1],[0,0.75],[0,0.5],[0,0.25]];outlineConnect=0;gradientColor=none;html=1;whiteSpace=wrap;fontSize=12;fontStyle=0;container=1;pointerEvents=0;collapsible=0;recursiveResize=0;shape=mxgraph.aws4.group;grIcon=mxgraph.aws4.group_vpc;strokeColor=#248814;fillColor=none;verticalAlign=top;align=left;spacingLeft=30;fontColor=#AAB7B8;dashed=0;" vertex="1" parent="ts-POBUd6PFqygl2_fgs-2">
          <mxGeometry x="140.5" y="50" width="909.5" height="820" as="geometry" />
        </mxCell>
        <mxCell id="ts-POBUd6PFqygl2_fgs-5" value="Public subnet" style="points=[[0,0],[0.25,0],[0.5,0],[0.75,0],[1,0],[1,0.25],[1,0.5],[1,0.75],[1,1],[0.75,1],[0.5,1],[0.25,1],[0,1],[0,0.75],[0,0.5],[0,0.25]];outlineConnect=0;gradientColor=none;html=1;whiteSpace=wrap;fontSize=12;fontStyle=0;container=1;pointerEvents=0;collapsible=0;recursiveResize=0;shape=mxgraph.aws4.group;grIcon=mxgraph.aws4.group_security_group;grStroke=0;strokeColor=#248814;fillColor=#E9F3E6;verticalAlign=top;align=left;spacingLeft=30;fontColor=#248814;dashed=0;" vertex="1" parent="ts-POBUd6PFqygl2_fgs-4">
          <mxGeometry x="30" y="45" width="840" height="175" as="geometry" />
        </mxCell>
        <mxCell id="ts-POBUd6PFqygl2_fgs-57" value="BastionHost" style="outlineConnect=0;dashed=0;verticalLabelPosition=top;verticalAlign=bottom;align=center;html=1;shape=mxgraph.aws3.instance;fillColor=#F58534;gradientColor=none;labelPosition=center;" vertex="1" parent="ts-POBUd6PFqygl2_fgs-5">
          <mxGeometry x="119.5" y="47.5" width="60" height="63" as="geometry" />
        </mxCell>
        <mxCell id="ts-POBUd6PFqygl2_fgs-78" value="NAT Gateway" style="outlineConnect=0;dashed=0;verticalLabelPosition=top;verticalAlign=bottom;align=center;html=1;shape=mxgraph.aws3.vpc_nat_gateway;fillColor=#F58534;gradientColor=none;labelPosition=center;" vertex="1" parent="ts-POBUd6PFqygl2_fgs-5">
          <mxGeometry x="669.5" y="38.5" width="69" height="72" as="geometry" />
        </mxCell>
        <mxCell id="ts-POBUd6PFqygl2_fgs-84" value="ALB" style="outlineConnect=0;dashed=0;verticalLabelPosition=top;verticalAlign=bottom;align=center;html=1;shape=mxgraph.aws3.application_load_balancer;fillColor=#F58534;gradientColor=none;labelPosition=center;" vertex="1" parent="ts-POBUd6PFqygl2_fgs-5">
          <mxGeometry x="390" y="43" width="69" height="72" as="geometry" />
        </mxCell>
        <mxCell id="ts-POBUd6PFqygl2_fgs-16" value="Private subnet" style="points=[[0,0],[0.25,0],[0.5,0],[0.75,0],[1,0],[1,0.25],[1,0.5],[1,0.75],[1,1],[0.75,1],[0.5,1],[0.25,1],[0,1],[0,0.75],[0,0.5],[0,0.25]];outlineConnect=0;gradientColor=none;html=1;whiteSpace=wrap;fontSize=12;fontStyle=0;container=1;pointerEvents=0;collapsible=0;recursiveResize=0;shape=mxgraph.aws4.group;grIcon=mxgraph.aws4.group_security_group;grStroke=0;strokeColor=#147EBA;fillColor=#E6F2F8;verticalAlign=top;align=left;spacingLeft=30;fontColor=#147EBA;dashed=0;" vertex="1" parent="ts-POBUd6PFqygl2_fgs-4">
          <mxGeometry x="30" y="625" width="850" height="165" as="geometry" />
        </mxCell>
        <mxCell id="ts-POBUd6PFqygl2_fgs-17" value="" style="sketch=0;points=[[0,0,0],[0.25,0,0],[0.5,0,0],[0.75,0,0],[1,0,0],[0,1,0],[0.25,1,0],[0.5,1,0],[0.75,1,0],[1,1,0],[0,0.25,0],[0,0.5,0],[0,0.75,0],[1,0.25,0],[1,0.5,0],[1,0.75,0]];outlineConnect=0;fontColor=#232F3E;gradientColor=#4D72F3;gradientDirection=north;fillColor=#3334B9;strokeColor=#ffffff;dashed=0;verticalLabelPosition=bottom;verticalAlign=top;align=center;html=1;fontSize=12;fontStyle=0;aspect=fixed;shape=mxgraph.aws4.resourceIcon;resIcon=mxgraph.aws4.rds;" vertex="1" parent="ts-POBUd6PFqygl2_fgs-16">
          <mxGeometry x="385.75" y="50" width="78" height="78" as="geometry" />
        </mxCell>
        <mxCell id="ts-POBUd6PFqygl2_fgs-43" value="Private subnet" style="points=[[0,0],[0.25,0],[0.5,0],[0.75,0],[1,0],[1,0.25],[1,0.5],[1,0.75],[1,1],[0.75,1],[0.5,1],[0.25,1],[0,1],[0,0.75],[0,0.5],[0,0.25]];outlineConnect=0;gradientColor=none;html=1;whiteSpace=wrap;fontSize=12;fontStyle=0;container=1;pointerEvents=0;collapsible=0;recursiveResize=0;shape=mxgraph.aws4.group;grIcon=mxgraph.aws4.group_security_group;grStroke=0;strokeColor=#147EBA;fillColor=#E6F2F8;verticalAlign=top;align=left;spacingLeft=30;fontColor=#147EBA;dashed=0;" vertex="1" parent="ts-POBUd6PFqygl2_fgs-4">
          <mxGeometry x="30" y="250" width="850" height="340" as="geometry" />
        </mxCell>
        <mxCell id="ts-POBUd6PFqygl2_fgs-56" value="Auto Scaling group" style="points=[[0,0],[0.25,0],[0.5,0],[0.75,0],[1,0],[1,0.25],[1,0.5],[1,0.75],[1,1],[0.75,1],[0.5,1],[0.25,1],[0,1],[0,0.75],[0,0.5],[0,0.25]];outlineConnect=0;gradientColor=none;html=1;whiteSpace=wrap;fontSize=12;fontStyle=0;container=1;pointerEvents=0;collapsible=0;recursiveResize=0;shape=mxgraph.aws4.groupCenter;grIcon=mxgraph.aws4.group_auto_scaling_group;grStroke=1;strokeColor=#D86613;fillColor=none;verticalAlign=top;align=center;fontColor=#D86613;dashed=1;spacingTop=25;" vertex="1" parent="ts-POBUd6PFqygl2_fgs-43">
          <mxGeometry x="39.5" y="45" width="230" height="250" as="geometry" />
        </mxCell>
        <mxCell id="ts-POBUd6PFqygl2_fgs-46" value="" style="rounded=0;whiteSpace=wrap;html=1;fillColor=none;strokeColor=#6563ff;strokeWidth=2;" vertex="1" parent="ts-POBUd6PFqygl2_fgs-56">
          <mxGeometry x="50" y="95" width="130" height="110" as="geometry" />
        </mxCell>
        <mxCell id="ts-POBUd6PFqygl2_fgs-47" value="User Service" style="shape=image;verticalLabelPosition=bottom;labelBackgroundColor=none;verticalAlign=top;aspect=fixed;imageAspect=0;image=data:image/png,iVBORw0KGgoAAAANSUhEUgAAAOEAAADhCAMAAAAJbSJIAAAAkFBMVEVtsz///////v////1ttD5us0DO5cGAvlZtsj9lsDJusj6/27DC37JqsjposTb9///q8+Ot05ZgrSny+O2SxXKey4F5uU36/Pin0ZLb7NGSxW3M5LmJwmjm8t6jzoiy1p/W6cm826mCvV58ulDq9N9driPt9em42KKUxXj3/PTf7dW/2rGDvGDb7c6azH7C3q4Z63B3AAAWjElEQVR4nO1dDXeiOhMmkChQExC/qtW22q2t3d7u//9370xAJRTIRGS7fU/nnt6792xFnmQymY8nE4/9v4v31S/Qu/wg/P7yg/D7yw/C7y8/CL+//CD8/tINYQA/SXCdN/n88CDBx3d9TCeEvn6PgPWGEX4Sv+NDOiEMYIR9HyH2gzFJOs9gR4QJYuxrArUE3dW04xzqyUvfBv3IW5qD/DqEKL9eprsn4Yk+ZLibvmy6vuClCAO9CtOtzCIpeU8iuYwytU1hNSQJmNbgEqtzIUJtydOHufLi2OtNQDVCHkbzhxQgBoDvEo29GCFjdzslQ3iLHoXD43ko1W6UL/q/iNBn6Xsm4RV4nwC9EOZR8NiT2e5io3MhwuRxqDwB8MJe59ALYTVqM6Z2jxca1QsRjgRMYNzvBKKSenoV4FBKMbpsEp0R+j4s+NFzz9jq0D7f5d6To0V1Rgh7RDIQfc9eLUQx0LuG4wu7a2nA0rn8+wBDj8t5mnuK/SIELRFfABAllnOE57tBvADhn4yHXwEQZjEaoaff8zpk6a53G1orsPd7ErbFpL85BBsGi2BxG4G+fAVElGgcuIbEDgghHAWQSwH4vkRLUbhYuu6KTlqKdmyl+nbVWkWterU0EE8MshBW/JdpKfeyOyd8busQjNhkLUFTvkxJ4bvletIbQpzCkUQV/bIphK+O5ag3hLATbeZfuARzEXy+Aee4F4Qwh/eq32DJLqBC0T0ONtncuMwhSyP+xQjB2eA82sC7kFOpLnO4mKqvszFnkJ6cHhxy0C4IMWj64jkUqKYxhFH0XdEB4WH65avQyw2dXB3o7jcNoc/8hD1kX+Ny10j0QJ8YGkL0die4C/aceCKLnJCNKQlhgNnYcQQ68oV7vSFqTK7Y0BDCDvsoMK/3b6gpj2PxSARI1VK2mGHq4t8AiK8hZ4erIoSdIs/NiI5qKkG6DxPsyqGkTiIVYcfsU6gHXj2tX1+nQ9k5kwXrJRZYnSV4NiSECdt2zD6BsyUUv1mCai02253qpgoCIUbbPK9yFYQs3cmOQSG80fsbK4gNh3XU6WHgngqBWSlK3o2EcHGreEcrw9UrRq4JCmAcd1JUIdCwq9sFhalBQrgUMuy2FYqY74u6vx8AxMO6C0TBweKBj7xkwZW0dKW8jjtFCH5W4vu6Ng4YfTbIujwOq8PUrJQFYYB60PFtUOTTvjLeV6h9iOyO2dOnNoQwSJNOGlUghA3afJdb1fmhvMhKtauqBSEsGsw+dX4Zta2+x03U1YlHJ3KESf52VbUgTFiwuUYtLbqpxgKjqGvaNeSxnCPdpn0tWueQ3XdXJ40w8Y1JHCkw+N2UI+ZhdG/dE61z+CtyeQ0upVI1cx79rj75TyQqaS0uVRTVfbhNog2qf9tCbEYIIRO4fYspdRXir0lvPRvfvs5V6JleHsxhRUaGWxOiX/c+244eVnOJnwxj2vYkp7Dtt1b22+YQS+YDQTUIIuTReoAxTbIcy9jUQBtCpJXc7PXALme4OVG/luvi/kUI9eYcHFaSaA6EJ6MZviNys4JlZrqxFoTck/MlDika3MVDpvWGVuLCrNSFu4WPEMdRyEOamkp5c+Rjws8jd5jDmHsAEN8T6WuMPQ5hXIlprxi8pct2C10vn3AqPk/u7nTgkDAfqb0Lc0dvRyhCNdbeRYJZPXhf3KEEMTfLeXtWqnkOIbyEKeREh1RicVZX4DSlyGePczpCHmcTjDswpg0073GzjoimBivfbVPYvluYb9k4iPCP2h1YaWeC/y5WZbtv09J5lek0ec3/3qpDMNGYlcJhqZ/JNktzmNE2e8HlKmVF4KA/i0vqlY4wlNPK62EtVsGGE1pLQdwL1Wyhw7J6g9NmaQaSFteHCrmR5VoJLkcHhJ6aVUstAUvXCtXDmj0JBVcDXb51nEOG3CfSWufoHeoZPL0lOsNTOkIBWlr5blADrJMQUgv4OyJhjUciWrR0S0ymSFgH+umnsmUCW/BmV343i6UJs4M5A/iEnD9HyF+Ce7pljQXF5jlMd5KUueBq5Ofxe3AKkADwbyefBl7ReEF0GH22jAibIqoxb6EQ1yAscZ8sa0DrUPSCse0JG3qJuKMNjdGxIZTDN9wtqkzuAaxDkk+lmrlSNQjp3CdcpmoalBiR+D24r01WysXz5qFcp3XB+pi4Ulq4UrVaSuU+wSKXTxudWjo+3deLMZ1KJ887DvUsVvkH8P/U8Ls5K9WAkMZ94iIEK4PnPU42Ru/2A6kqbqUFoSZyI1Hm0ywS2botXKm6dUjnPvHoluloIjjt9TDuEL57oVNsgQhhW3tYmL/jg4u7pSFs5krVzSGZ+xSHzwucwpK7BkhH2pU1NdympUKbLbAXn8aamDtu5krVWRoC96nAjiWu40vlmpqwl6zms9YIGAVC6NkB1eBoFhP9LrBlEAKcRq5U/RxauU/oLgoh0SEsDzn88zur020SQhi3aMbQvzw9FMPpW0WIMpq5UnVzSOE+oVrF88fyRoGrho14raNFQYhnxLR3UqoK6uONc7v32MKVqptDCvcJfiFWtzDeJ4/eD7Szzms3UQpCgRlQvZxOz4RdyMdRo4SKTVypOoQE7lMIL+NlexaU1iFY+tST1SwbHaGnB0eW9+78+AihrNDClapBSOM+8Vih3p/mEM3D4lVhefZCLcVzYrgvPhm/B1oCMYBtDlu4UiZCOvcJdEKYB1ix7tkYMdMsDYrg0T0OnHG+iVoVr+NKmQjJ3CekHdya+3PC/mv2gegIPfCTBswv4QPtf6FWxWu4UgZCF+4TpmJNgGzXnFt1mEP0MQ/M9FFT6vGAGq6UiZDMfRIxptONz8JW3/wxOkJt9sfML5Ubg2pusklquVIVLaVyn2KMWU1J31VzKt5BS7UbPSnnfbAoTipT1XKlqraUzH16ruQd2LZtmJ20NBaobMHJBQO9m7xTvNNarlQFYcCJ+TU5ZSfDrFPx4HnUb/aOCLXwIsmfPx7/pdXUOu5HrlQjwgR2HmICMborOY+B/mTsNauSI0JPvZSLgvBN/2X6YHf7Wx25Uqx8ct+cw3RHZHLHMj07pLrgIFqz8K4I5XBfXojwE1EKKCeuVGkvNRBqk0Wyy+rjcApV/OTIj2nO3roijEs6kmjKy4eqRtWf5cSV8pMGhMh9omkpciuOr+BjFhGr/S0NFlwRenJ30lJ0TmEICZN45Eq9lbMhBsI19eQdj0vbPa7C/Xv7+XxnhF52svr5odFUcoIziSW5UK5Zwzq8I3OfMAN70gRdDLcotztC9WLuRpOVJBYUY8/gSnnneaDtOVq0Q3NSBNgsmn3uXFwRhp56NY3+YqyoBwWEfC9xpY5zCBMxohM9IHAqxWGJHuBWcUXItUk05CYiBhiwGOXNmSt1mkO2cWBhRX9K2RSMfG0rxBmh51U8e3SYaWoagi0RZ67UcQ4DNnM48xM9lqJ7pBbYVrDzbgF6UvnI8olO7OFYkCx8rpOl2bgQk7NNwQwpINqW4SVzWE2egjcSUolwIs5OXKmTlk5ptbS8mPVced2Vbf7dbWmopkaUECyqtZBWka8s8A1Ls5xTxwcHkhvfHbAnGzXMGSF48cO98S3sVbn0AQDf3UAYvChySyvO5bD83WCyMpsNuAAhnxsIfXCbXBoBqJdiFRUIcS8kG5pQvlde19qQx11LOS4lQ8bK5cyH3E1yU1Mg3Cj68Agu7039Sa3O0AUIRZaa3zKmZPfPoooBKhAOspD6cbBoYIuN797U1irK4ooQyyJRJVrfRi5ndONowMo7/ofy6GdGhPo0hzFlHRa7S+4qIAu6+UMc3PioUi4bRC6WhsuP3G0rEO4kfJoY3munzZANRUv9U9ZDcxlGtmhIKANhwO6cjhKhsSgjHGJFmzyHclZFaFMf9VDqYaXbA+IcNn8j7HxxVbPvSGH+ScDg628sED7zkOi5Q5gbV+fwl3UO5XRyzlwhQxPWResX8rp16IIwDJ9ZeT9sSeZ+EuHJiqWx21Ket+k6fgD+OOc8bk4ocC6EuVskrrbUy/It/ziHDosY2zUZ3x2wZ5ulATU9xVsBulODTLQzPYRn7haJ3fmtPMCcw+f6sl+DgIqXcj1JwjKr/vDsTR/ACfLMXDq0Toc0fRpMBTmd8kQtLa1Dh0/i60qMTZJTJoo9xTZ+GMTdqWbb+Ojx718t84ERkOmXVgir9neMBSvHFkNJVVOB+SCMLU48KHjnD9uXY0VheLIc+531ZWFIpiZBZrFy6k/FeVFpLRBC7EQ9hSR4Xjk5VdsDn0DUjHkos/XjfjLZv80iadM38Tk+3Lu4zpiz/jC0dByFVG48SvQfO1fMYR0u7Vk65GjISKxWT4DP+lVIH6psh29PVnNmCNi2sqVZZtR+CTESmKI/pa8GpKmVAVcsAi7xqLo9Vo95XJencZFsafil6ZNTmzm95ZfyyofpFU7wmSLfK4bmhuqW5n1dYzDFfklLFzNqxSL/evM8VcBernGEz/yKVxMg5kupn8Vsm7o/GAjZjdMr8h36G8Uc4rYxuHIfPo7UY0MmU/IM6P7K6nclm+h22FfTFI5ailO5p+fLaV8QZpVqNSx16iiiIdNp7/I6pBj8spTP9eoTUlc4uFyWENwmk007IMe/us85vCBLyrtFwAKnfhxqVmIfoQf31v1EuyHRXeXs971qKTGbEgseRngCq4wQBynPCBL7s8RphTkOXhH5MGa7QFjhhcPJqRzv6zqSTpSQIKKLrc5bzVFLA7ceO2FU2a1Qi67SUDHWuQ31Epy0NMHsgIOOoGvxcfiEMMGTag59kuSqQjYBX/M65jQG94fP386HYBKMtpxCJyS+VhEmiWOvK55VaYB31wGIkT8euDyf0EZ2vENtEw8JlblfR0uDKuHQr0w7buYkurxEmyBTWE3Kfbtxv9VWhjr6csI+MRXQP3HpORfzKq8Ni+RXmUVkbI/zuTuOPjo0+u9IXk1scjANpoJL30Dc9DFkP2fQ2FQnzsknh+sFPMrPRydS4pFg/e8Kj9ZkDLn0ftQtfpJTpA924W1OOvXZLmBoKvxC+AIiv7SWC20iJPfvxJjd26Ml98/sNn8bkU59tksc3Zt0dFBWetXpM5+9wmtz6MEq8qOtZ65+whb3EeXUZ7uYpTstfyLaqNWeSajyS6l9dAXEwegcl0IoZFATT322AXx6q57vokcFdedKzDkk90LmYYgEMs3aOyop2vdl1DWM4nf5EdmS3EhyJ5uas0HVOXTqZ40HgCu06kftFcU6CHUGh4vwT/lqAP30dC6pFIW6810mz9uxJ7n8WFSY8T4boYuMFEFne8PhU+pBv8QxT4msQHaLtoF2qrzujF6FI+zYV14NKq4bWnZ0G/COH3eEMZaoSvxXzdlJW4tU5hPqzll+Quh0N0AcVU+Zg70ZaXvqvmXwnN6LjX/O4xUc1rAKqQ+rOytrWhrH+x0gDruv3GyDdNfHyIX5cpKYP+TdUU4uKYLdyjikDljteefKeQvqOfXiifBjxon6OA9bzp0K0rlIOfKLA7fHDTspCPIelblcd2a97uwatdeAfi+0zkn1jqLJfZGctD6G550/BZe7vdn5Qf9pwYn7c3PfgdqTzuSslAA9XeV9d0xZ4LV6+Vk0yxPCPCiX40k5x4x/gukIbunK0NQ7ova0OrXnh4cdMXWsUtENmIy3dUagLeOvYMle/LfIK6cnhAF2KrqLqWZU9/9grKb/Rx1Cet8W/HYcusq+n3ur23dlrdlhMCLVbltEqOfOBfqQ2UBJanaruYdLrZZSe++IHCVGisZzsdYLOjb582Q7GhmHXOEFjoUveeqv4WMl1YHT29KHp6G3Ca1/kn4y96SoEJYx7aPLGvuRyFRzhgp8mCx6SbF5Vn6rcEkXsAWPFFQtbemlVHta3akHlndqg1XbIGZwvxNK1zb56WWKwVFyOLurvpBe0Wi8sMeQgzT2w6rvOODUxwx8bTlc6nGplf1gPJUR1kVjzHPpDVyqLN7dDt6K6SqLvm8U/WO3ho2NPc3qLQ1jDr3owMnmcv5LuyA1T8PFf0gfx6t59pxpeX4Wq/Eg3S/yFVtxijC2SNjk1Yl50dKXrt7SOPUT1LGSnD8mtY2ayj4KS39tNum58unnf+NXfx88x7m11G9IS2/Bekvj1BOSY7wPa7G+fUqQ9x1ixsleHUDouUpKjPji97XbJ134Pa39IesQOvb1DLnmUUq+rR/Eon1NUFS78iY9uLv7QRB8asyJcAe6KY0LhWm6+JQZaENYfNMvB96wRpq9poXvXe6KRZYgV1HYjCPX7Hlbn9ZGhK79dfFknNot9djg/DQt/GYp1vHblHiOtRBbr92WOXTskczxCPv8AZUx70XmLJort51LOtPVI/RLbplD5z7XWBeLxGahXTDnO1915Av+eoixlMPA2npeN/fcc+9Vrrt+SH67ydu0uiKE78OYizver2jrW97SVdCx3zzPz9LzWD1tF80eTovcgZ8GTk9IzDAcx9XSe97S7fqiOwN4xB8m7Ngi60zwNt4i0T/ooOeLdjIQzukd0v0BFoSX3vsQ7bbFfR3JsXNuJcLSwZJ/dHfSm3V+nt+hcEW8A8KC8NK7O7iUT/d660AISZ5nN2NI7bDmo7+53UUwkk4WhnyPh+1+iwvvX4ljLuNMPmwmObaEfTIFhRM32TzMIYaEQBDf14mwQruLxdp1/rI7dHSdFLZitXsYLPNyeM0WudgMXlYKGwiFOhqNq43oW4V4n47t5oAL70HSR/1iZOpG/Gl1/+e/T/dPTZaj2+kOouAQO3iKnDLpVj6m3Ylkv4Wl611WHG8EgJhw/v4xG/+5GY0eZvfrIYSJkZKdSnHEe61sCK93HxkAVSpCUR2hHR+I/XaqhBBnhFe+Uw4bloWY+bvGLYPE++VsCK94L2BxOA4Ld477QpOQ7gi0aul17nbUgMJSjeUqNEbSPY82hNe8n7PYWIs8cneh3dVpt6Xs37hjtSwtPQQvRPgv3JNbFqc7c2kI/427jstCv/eYhPBfuK+6LE53V9Pm8F+4c7wsLveP0+bwn7g3viwOd8hT59CJK9W7NPe2vhChK1eqb2npT34hQmeuVM/S0mO+A0InrlTfQru90gGhK1eqb2m56+FChK5cqb6l5b6OCxEW4sKV6ktsd650QujAlepT2u/N6YTQgSvVnzRzn66BkM6V6k9s91d1QkjnSvUn1jvIOiFEoXKl+hLrPXLdEDpzpfoQy12AnRC6cqV6Edt9jp0QunKl+hDrnZydEDpzpXoQ672qnRAy1/tzry/2u3G7IXS9A/n60sZ9ugbCQtJIVzP/Mjg8AO1Fexdv5kKECRobfXHRX940uAixG4gzx8N9DpPg8KqPIv3d5QjeTDRblPn8vSH0fbzKNu52jtJdQh69TpjB5+8JYZCTpf56HCWi9UQvwfaq/RUQFjTzKf3O5etINM3PLDgvxAsQ5jC3nm6Ahv5Nbxsk9gfLq6rSe/l89KhXhJhdXEdc31uI+PowO/G53BWt9RE5xxXYCSFuupOHZ8mxIh/G/RhWnrOIpMpeDpq16s53vBxhrjKH8U4qiWSYvkJ/JHC8jw96TC+grHZAqA9S4rGf3/fDLJISe8pcVyQ2r1PZ8PZmnyekkfN+AfH44jnUVGf802L/9nK/G/Yi9y9v6SKnK+eNQS951Utt6feRH4TfX34Qfn/5Qfj95Qfh95cfhN9ffhB+f/lB+P3lf1U9UynlLyZKAAAAAElFTkSuQmCC;" vertex="1" parent="ts-POBUd6PFqygl2_fgs-56">
          <mxGeometry x="90" y="113" width="50" height="50" as="geometry" />
        </mxCell>
        <mxCell id="ts-POBUd6PFqygl2_fgs-48" value="" style="shape=image;html=1;verticalAlign=top;verticalLabelPosition=bottom;labelBackgroundColor=#ffffff;imageAspect=0;aspect=fixed;image=https://cdn1.iconfinder.com/data/icons/unicons-line-vol-3/24/docker-128.png" vertex="1" parent="ts-POBUd6PFqygl2_fgs-56">
          <mxGeometry x="140" y="72" width="40" height="40" as="geometry" />
        </mxCell>
        <mxCell id="ts-POBUd6PFqygl2_fgs-60" value="EC2 instance" style="points=[[0,0],[0.25,0],[0.5,0],[0.75,0],[1,0],[1,0.25],[1,0.5],[1,0.75],[1,1],[0.75,1],[0.5,1],[0.25,1],[0,1],[0,0.75],[0,0.5],[0,0.25]];outlineConnect=0;gradientColor=none;html=1;whiteSpace=wrap;fontSize=12;fontStyle=0;container=0;pointerEvents=0;collapsible=0;recursiveResize=0;shape=mxgraph.aws4.group;grIcon=mxgraph.aws4.group_ec2_instance_contents;strokeColor=#D86613;fillColor=none;verticalAlign=top;align=left;spacingLeft=30;fontColor=#D86613;dashed=0;strokeWidth=2;" vertex="1" parent="ts-POBUd6PFqygl2_fgs-56">
          <mxGeometry x="25" y="52.5" width="180" height="175" as="geometry" />
        </mxCell>
        <mxCell id="ts-POBUd6PFqygl2_fgs-68" value="Auto Scaling group" style="points=[[0,0],[0.25,0],[0.5,0],[0.75,0],[1,0],[1,0.25],[1,0.5],[1,0.75],[1,1],[0.75,1],[0.5,1],[0.25,1],[0,1],[0,0.75],[0,0.5],[0,0.25]];outlineConnect=0;gradientColor=none;html=1;whiteSpace=wrap;fontSize=12;fontStyle=0;container=1;pointerEvents=0;collapsible=0;recursiveResize=0;shape=mxgraph.aws4.groupCenter;grIcon=mxgraph.aws4.group_auto_scaling_group;grStroke=1;strokeColor=#D86613;fillColor=none;verticalAlign=top;align=center;fontColor=#D86613;dashed=1;spacingTop=25;" vertex="1" parent="ts-POBUd6PFqygl2_fgs-43">
          <mxGeometry x="309.5" y="45" width="230" height="250" as="geometry" />
        </mxCell>
        <mxCell id="ts-POBUd6PFqygl2_fgs-69" value="" style="rounded=0;whiteSpace=wrap;html=1;fillColor=none;strokeColor=#6563ff;strokeWidth=2;" vertex="1" parent="ts-POBUd6PFqygl2_fgs-68">
          <mxGeometry x="50" y="95" width="130" height="110" as="geometry" />
        </mxCell>
        <mxCell id="ts-POBUd6PFqygl2_fgs-70" value="Product Service" style="shape=image;verticalLabelPosition=bottom;labelBackgroundColor=none;verticalAlign=top;aspect=fixed;imageAspect=0;image=data:image/png,iVBORw0KGgoAAAANSUhEUgAAAOEAAADhCAMAAAAJbSJIAAAAkFBMVEVtsz///////v////1ttD5us0DO5cGAvlZtsj9lsDJusj6/27DC37JqsjposTb9///q8+Ot05ZgrSny+O2SxXKey4F5uU36/Pin0ZLb7NGSxW3M5LmJwmjm8t6jzoiy1p/W6cm826mCvV58ulDq9N9driPt9em42KKUxXj3/PTf7dW/2rGDvGDb7c6azH7C3q4Z63B3AAAWjElEQVR4nO1dDXeiOhMmkChQExC/qtW22q2t3d7u//9370xAJRTIRGS7fU/nnt6792xFnmQymY8nE4/9v4v31S/Qu/wg/P7yg/D7yw/C7y8/CL+//CD8/tINYQA/SXCdN/n88CDBx3d9TCeEvn6PgPWGEX4Sv+NDOiEMYIR9HyH2gzFJOs9gR4QJYuxrArUE3dW04xzqyUvfBv3IW5qD/DqEKL9eprsn4Yk+ZLibvmy6vuClCAO9CtOtzCIpeU8iuYwytU1hNSQJmNbgEqtzIUJtydOHufLi2OtNQDVCHkbzhxQgBoDvEo29GCFjdzslQ3iLHoXD43ko1W6UL/q/iNBn6Xsm4RV4nwC9EOZR8NiT2e5io3MhwuRxqDwB8MJe59ALYTVqM6Z2jxca1QsRjgRMYNzvBKKSenoV4FBKMbpsEp0R+j4s+NFzz9jq0D7f5d6To0V1Rgh7RDIQfc9eLUQx0LuG4wu7a2nA0rn8+wBDj8t5mnuK/SIELRFfABAllnOE57tBvADhn4yHXwEQZjEaoaff8zpk6a53G1orsPd7ErbFpL85BBsGi2BxG4G+fAVElGgcuIbEDgghHAWQSwH4vkRLUbhYuu6KTlqKdmyl+nbVWkWterU0EE8MshBW/JdpKfeyOyd8busQjNhkLUFTvkxJ4bvletIbQpzCkUQV/bIphK+O5ag3hLATbeZfuARzEXy+Aee4F4Qwh/eq32DJLqBC0T0ONtncuMwhSyP+xQjB2eA82sC7kFOpLnO4mKqvszFnkJ6cHhxy0C4IMWj64jkUqKYxhFH0XdEB4WH65avQyw2dXB3o7jcNoc/8hD1kX+Ny10j0QJ8YGkL0die4C/aceCKLnJCNKQlhgNnYcQQ68oV7vSFqTK7Y0BDCDvsoMK/3b6gpj2PxSARI1VK2mGHq4t8AiK8hZ4erIoSdIs/NiI5qKkG6DxPsyqGkTiIVYcfsU6gHXj2tX1+nQ9k5kwXrJRZYnSV4NiSECdt2zD6BsyUUv1mCai02253qpgoCIUbbPK9yFYQs3cmOQSG80fsbK4gNh3XU6WHgngqBWSlK3o2EcHGreEcrw9UrRq4JCmAcd1JUIdCwq9sFhalBQrgUMuy2FYqY74u6vx8AxMO6C0TBweKBj7xkwZW0dKW8jjtFCH5W4vu6Ng4YfTbIujwOq8PUrJQFYYB60PFtUOTTvjLeV6h9iOyO2dOnNoQwSJNOGlUghA3afJdb1fmhvMhKtauqBSEsGsw+dX4Zta2+x03U1YlHJ3KESf52VbUgTFiwuUYtLbqpxgKjqGvaNeSxnCPdpn0tWueQ3XdXJ40w8Y1JHCkw+N2UI+ZhdG/dE61z+CtyeQ0upVI1cx79rj75TyQqaS0uVRTVfbhNog2qf9tCbEYIIRO4fYspdRXir0lvPRvfvs5V6JleHsxhRUaGWxOiX/c+244eVnOJnwxj2vYkp7Dtt1b22+YQS+YDQTUIIuTReoAxTbIcy9jUQBtCpJXc7PXALme4OVG/luvi/kUI9eYcHFaSaA6EJ6MZviNys4JlZrqxFoTck/MlDika3MVDpvWGVuLCrNSFu4WPEMdRyEOamkp5c+Rjws8jd5jDmHsAEN8T6WuMPQ5hXIlprxi8pct2C10vn3AqPk/u7nTgkDAfqb0Lc0dvRyhCNdbeRYJZPXhf3KEEMTfLeXtWqnkOIbyEKeREh1RicVZX4DSlyGePczpCHmcTjDswpg0073GzjoimBivfbVPYvluYb9k4iPCP2h1YaWeC/y5WZbtv09J5lek0ec3/3qpDMNGYlcJhqZ/JNktzmNE2e8HlKmVF4KA/i0vqlY4wlNPK62EtVsGGE1pLQdwL1Wyhw7J6g9NmaQaSFteHCrmR5VoJLkcHhJ6aVUstAUvXCtXDmj0JBVcDXb51nEOG3CfSWufoHeoZPL0lOsNTOkIBWlr5blADrJMQUgv4OyJhjUciWrR0S0ymSFgH+umnsmUCW/BmV343i6UJs4M5A/iEnD9HyF+Ce7pljQXF5jlMd5KUueBq5Ofxe3AKkADwbyefBl7ReEF0GH22jAibIqoxb6EQ1yAscZ8sa0DrUPSCse0JG3qJuKMNjdGxIZTDN9wtqkzuAaxDkk+lmrlSNQjp3CdcpmoalBiR+D24r01WysXz5qFcp3XB+pi4Ulq4UrVaSuU+wSKXTxudWjo+3deLMZ1KJ887DvUsVvkH8P/U8Ls5K9WAkMZ94iIEK4PnPU42Ru/2A6kqbqUFoSZyI1Hm0ywS2botXKm6dUjnPvHoluloIjjt9TDuEL57oVNsgQhhW3tYmL/jg4u7pSFs5krVzSGZ+xSHzwucwpK7BkhH2pU1NdympUKbLbAXn8aamDtu5krVWRoC96nAjiWu40vlmpqwl6zms9YIGAVC6NkB1eBoFhP9LrBlEAKcRq5U/RxauU/oLgoh0SEsDzn88zur020SQhi3aMbQvzw9FMPpW0WIMpq5UnVzSOE+oVrF88fyRoGrho14raNFQYhnxLR3UqoK6uONc7v32MKVqptDCvcJfiFWtzDeJ4/eD7Szzms3UQpCgRlQvZxOz4RdyMdRo4SKTVypOoQE7lMIL+NlexaU1iFY+tST1SwbHaGnB0eW9+78+AihrNDClapBSOM+8Vih3p/mEM3D4lVhefZCLcVzYrgvPhm/B1oCMYBtDlu4UiZCOvcJdEKYB1ix7tkYMdMsDYrg0T0OnHG+iVoVr+NKmQjJ3CekHdya+3PC/mv2gegIPfCTBswv4QPtf6FWxWu4UgZCF+4TpmJNgGzXnFt1mEP0MQ/M9FFT6vGAGq6UiZDMfRIxptONz8JW3/wxOkJt9sfML5Ubg2pusklquVIVLaVyn2KMWU1J31VzKt5BS7UbPSnnfbAoTipT1XKlqraUzH16ruQd2LZtmJ20NBaobMHJBQO9m7xTvNNarlQFYcCJ+TU5ZSfDrFPx4HnUb/aOCLXwIsmfPx7/pdXUOu5HrlQjwgR2HmICMborOY+B/mTsNauSI0JPvZSLgvBN/2X6YHf7Wx25Uqx8ct+cw3RHZHLHMj07pLrgIFqz8K4I5XBfXojwE1EKKCeuVGkvNRBqk0Wyy+rjcApV/OTIj2nO3roijEs6kmjKy4eqRtWf5cSV8pMGhMh9omkpciuOr+BjFhGr/S0NFlwRenJ30lJ0TmEICZN45Eq9lbMhBsI19eQdj0vbPa7C/Xv7+XxnhF52svr5odFUcoIziSW5UK5Zwzq8I3OfMAN70gRdDLcotztC9WLuRpOVJBYUY8/gSnnneaDtOVq0Q3NSBNgsmn3uXFwRhp56NY3+YqyoBwWEfC9xpY5zCBMxohM9IHAqxWGJHuBWcUXItUk05CYiBhiwGOXNmSt1mkO2cWBhRX9K2RSMfG0rxBmh51U8e3SYaWoagi0RZ67UcQ4DNnM48xM9lqJ7pBbYVrDzbgF6UvnI8olO7OFYkCx8rpOl2bgQk7NNwQwpINqW4SVzWE2egjcSUolwIs5OXKmTlk5ptbS8mPVced2Vbf7dbWmopkaUECyqtZBWka8s8A1Ls5xTxwcHkhvfHbAnGzXMGSF48cO98S3sVbn0AQDf3UAYvChySyvO5bD83WCyMpsNuAAhnxsIfXCbXBoBqJdiFRUIcS8kG5pQvlde19qQx11LOS4lQ8bK5cyH3E1yU1Mg3Cj68Agu7039Sa3O0AUIRZaa3zKmZPfPoooBKhAOspD6cbBoYIuN797U1irK4ooQyyJRJVrfRi5ndONowMo7/ofy6GdGhPo0hzFlHRa7S+4qIAu6+UMc3PioUi4bRC6WhsuP3G0rEO4kfJoY3munzZANRUv9U9ZDcxlGtmhIKANhwO6cjhKhsSgjHGJFmzyHclZFaFMf9VDqYaXbA+IcNn8j7HxxVbPvSGH+ScDg628sED7zkOi5Q5gbV+fwl3UO5XRyzlwhQxPWResX8rp16IIwDJ9ZeT9sSeZ+EuHJiqWx21Ket+k6fgD+OOc8bk4ocC6EuVskrrbUy/It/ziHDosY2zUZ3x2wZ5ulATU9xVsBulODTLQzPYRn7haJ3fmtPMCcw+f6sl+DgIqXcj1JwjKr/vDsTR/ACfLMXDq0Toc0fRpMBTmd8kQtLa1Dh0/i60qMTZJTJoo9xTZ+GMTdqWbb+Ojx718t84ERkOmXVgir9neMBSvHFkNJVVOB+SCMLU48KHjnD9uXY0VheLIc+531ZWFIpiZBZrFy6k/FeVFpLRBC7EQ9hSR4Xjk5VdsDn0DUjHkos/XjfjLZv80iadM38Tk+3Lu4zpiz/jC0dByFVG48SvQfO1fMYR0u7Vk65GjISKxWT4DP+lVIH6psh29PVnNmCNi2sqVZZtR+CTESmKI/pa8GpKmVAVcsAi7xqLo9Vo95XJencZFsafil6ZNTmzm95ZfyyofpFU7wmSLfK4bmhuqW5n1dYzDFfklLFzNqxSL/evM8VcBernGEz/yKVxMg5kupn8Vsm7o/GAjZjdMr8h36G8Uc4rYxuHIfPo7UY0MmU/IM6P7K6nclm+h22FfTFI5ailO5p+fLaV8QZpVqNSx16iiiIdNp7/I6pBj8spTP9eoTUlc4uFyWENwmk007IMe/us85vCBLyrtFwAKnfhxqVmIfoQf31v1EuyHRXeXs971qKTGbEgseRngCq4wQBynPCBL7s8RphTkOXhH5MGa7QFjhhcPJqRzv6zqSTpSQIKKLrc5bzVFLA7ceO2FU2a1Qi67SUDHWuQ31Epy0NMHsgIOOoGvxcfiEMMGTag59kuSqQjYBX/M65jQG94fP386HYBKMtpxCJyS+VhEmiWOvK55VaYB31wGIkT8euDyf0EZ2vENtEw8JlblfR0uDKuHQr0w7buYkurxEmyBTWE3Kfbtxv9VWhjr6csI+MRXQP3HpORfzKq8Ni+RXmUVkbI/zuTuOPjo0+u9IXk1scjANpoJL30Dc9DFkP2fQ2FQnzsknh+sFPMrPRydS4pFg/e8Kj9ZkDLn0ftQtfpJTpA924W1OOvXZLmBoKvxC+AIiv7SWC20iJPfvxJjd26Ml98/sNn8bkU59tksc3Zt0dFBWetXpM5+9wmtz6MEq8qOtZ65+whb3EeXUZ7uYpTstfyLaqNWeSajyS6l9dAXEwegcl0IoZFATT322AXx6q57vokcFdedKzDkk90LmYYgEMs3aOyop2vdl1DWM4nf5EdmS3EhyJ5uas0HVOXTqZ40HgCu06kftFcU6CHUGh4vwT/lqAP30dC6pFIW6810mz9uxJ7n8WFSY8T4boYuMFEFne8PhU+pBv8QxT4msQHaLtoF2qrzujF6FI+zYV14NKq4bWnZ0G/COH3eEMZaoSvxXzdlJW4tU5hPqzll+Quh0N0AcVU+Zg70ZaXvqvmXwnN6LjX/O4xUc1rAKqQ+rOytrWhrH+x0gDruv3GyDdNfHyIX5cpKYP+TdUU4uKYLdyjikDljteefKeQvqOfXiifBjxon6OA9bzp0K0rlIOfKLA7fHDTspCPIelblcd2a97uwatdeAfi+0zkn1jqLJfZGctD6G550/BZe7vdn5Qf9pwYn7c3PfgdqTzuSslAA9XeV9d0xZ4LV6+Vk0yxPCPCiX40k5x4x/gukIbunK0NQ7ova0OrXnh4cdMXWsUtENmIy3dUagLeOvYMle/LfIK6cnhAF2KrqLqWZU9/9grKb/Rx1Cet8W/HYcusq+n3ur23dlrdlhMCLVbltEqOfOBfqQ2UBJanaruYdLrZZSe++IHCVGisZzsdYLOjb582Q7GhmHXOEFjoUveeqv4WMl1YHT29KHp6G3Ca1/kn4y96SoEJYx7aPLGvuRyFRzhgp8mCx6SbF5Vn6rcEkXsAWPFFQtbemlVHta3akHlndqg1XbIGZwvxNK1zb56WWKwVFyOLurvpBe0Wi8sMeQgzT2w6rvOODUxwx8bTlc6nGplf1gPJUR1kVjzHPpDVyqLN7dDt6K6SqLvm8U/WO3ho2NPc3qLQ1jDr3owMnmcv5LuyA1T8PFf0gfx6t59pxpeX4Wq/Eg3S/yFVtxijC2SNjk1Yl50dKXrt7SOPUT1LGSnD8mtY2ayj4KS39tNum58unnf+NXfx88x7m11G9IS2/Bekvj1BOSY7wPa7G+fUqQ9x1ixsleHUDouUpKjPji97XbJ134Pa39IesQOvb1DLnmUUq+rR/Eon1NUFS78iY9uLv7QRB8asyJcAe6KY0LhWm6+JQZaENYfNMvB96wRpq9poXvXe6KRZYgV1HYjCPX7Hlbn9ZGhK79dfFknNot9djg/DQt/GYp1vHblHiOtRBbr92WOXTskczxCPv8AZUx70XmLJort51LOtPVI/RLbplD5z7XWBeLxGahXTDnO1915Av+eoixlMPA2npeN/fcc+9Vrrt+SH67ydu0uiKE78OYizver2jrW97SVdCx3zzPz9LzWD1tF80eTovcgZ8GTk9IzDAcx9XSe97S7fqiOwN4xB8m7Ngi60zwNt4i0T/ooOeLdjIQzukd0v0BFoSX3vsQ7bbFfR3JsXNuJcLSwZJ/dHfSm3V+nt+hcEW8A8KC8NK7O7iUT/d660AISZ5nN2NI7bDmo7+53UUwkk4WhnyPh+1+iwvvX4ljLuNMPmwmObaEfTIFhRM32TzMIYaEQBDf14mwQruLxdp1/rI7dHSdFLZitXsYLPNyeM0WudgMXlYKGwiFOhqNq43oW4V4n47t5oAL70HSR/1iZOpG/Gl1/+e/T/dPTZaj2+kOouAQO3iKnDLpVj6m3Ylkv4Wl611WHG8EgJhw/v4xG/+5GY0eZvfrIYSJkZKdSnHEe61sCK93HxkAVSpCUR2hHR+I/XaqhBBnhFe+Uw4bloWY+bvGLYPE++VsCK94L2BxOA4Ld477QpOQ7gi0aul17nbUgMJSjeUqNEbSPY82hNe8n7PYWIs8cneh3dVpt6Xs37hjtSwtPQQvRPgv3JNbFqc7c2kI/427jstCv/eYhPBfuK+6LE53V9Pm8F+4c7wsLveP0+bwn7g3viwOd8hT59CJK9W7NPe2vhChK1eqb2npT34hQmeuVM/S0mO+A0InrlTfQru90gGhK1eqb2m56+FChK5cqb6l5b6OCxEW4sKV6ktsd650QujAlepT2u/N6YTQgSvVnzRzn66BkM6V6k9s91d1QkjnSvUn1jvIOiFEoXKl+hLrPXLdEDpzpfoQy12AnRC6cqV6Edt9jp0QunKl+hDrnZydEDpzpXoQ672qnRAy1/tzry/2u3G7IXS9A/n60sZ9ugbCQtJIVzP/Mjg8AO1Fexdv5kKECRobfXHRX940uAixG4gzx8N9DpPg8KqPIv3d5QjeTDRblPn8vSH0fbzKNu52jtJdQh69TpjB5+8JYZCTpf56HCWi9UQvwfaq/RUQFjTzKf3O5etINM3PLDgvxAsQ5jC3nm6Ahv5Nbxsk9gfLq6rSe/l89KhXhJhdXEdc31uI+PowO/G53BWt9RE5xxXYCSFuupOHZ8mxIh/G/RhWnrOIpMpeDpq16s53vBxhrjKH8U4qiWSYvkJ/JHC8jw96TC+grHZAqA9S4rGf3/fDLJISe8pcVyQ2r1PZ8PZmnyekkfN+AfH44jnUVGf802L/9nK/G/Yi9y9v6SKnK+eNQS951Utt6feRH4TfX34Qfn/5Qfj95Qfh95cfhN9ffhB+f/lB+P3lf1U9UynlLyZKAAAAAElFTkSuQmCC;" vertex="1" parent="ts-POBUd6PFqygl2_fgs-68">
          <mxGeometry x="90" y="113" width="50" height="50" as="geometry" />
        </mxCell>
        <mxCell id="ts-POBUd6PFqygl2_fgs-71" value="" style="shape=image;html=1;verticalAlign=top;verticalLabelPosition=bottom;labelBackgroundColor=#ffffff;imageAspect=0;aspect=fixed;image=https://cdn1.iconfinder.com/data/icons/unicons-line-vol-3/24/docker-128.png" vertex="1" parent="ts-POBUd6PFqygl2_fgs-68">
          <mxGeometry x="140" y="72" width="40" height="40" as="geometry" />
        </mxCell>
        <mxCell id="ts-POBUd6PFqygl2_fgs-72" value="EC2 instance" style="points=[[0,0],[0.25,0],[0.5,0],[0.75,0],[1,0],[1,0.25],[1,0.5],[1,0.75],[1,1],[0.75,1],[0.5,1],[0.25,1],[0,1],[0,0.75],[0,0.5],[0,0.25]];outlineConnect=0;gradientColor=none;html=1;whiteSpace=wrap;fontSize=12;fontStyle=0;container=0;pointerEvents=0;collapsible=0;recursiveResize=0;shape=mxgraph.aws4.group;grIcon=mxgraph.aws4.group_ec2_instance_contents;strokeColor=#D86613;fillColor=none;verticalAlign=top;align=left;spacingLeft=30;fontColor=#D86613;dashed=0;strokeWidth=2;" vertex="1" parent="ts-POBUd6PFqygl2_fgs-68">
          <mxGeometry x="25" y="52.5" width="180" height="175" as="geometry" />
        </mxCell>
        <mxCell id="ts-POBUd6PFqygl2_fgs-73" value="Auto Scaling group" style="points=[[0,0],[0.25,0],[0.5,0],[0.75,0],[1,0],[1,0.25],[1,0.5],[1,0.75],[1,1],[0.75,1],[0.5,1],[0.25,1],[0,1],[0,0.75],[0,0.5],[0,0.25]];outlineConnect=0;gradientColor=none;html=1;whiteSpace=wrap;fontSize=12;fontStyle=0;container=1;pointerEvents=0;collapsible=0;recursiveResize=0;shape=mxgraph.aws4.groupCenter;grIcon=mxgraph.aws4.group_auto_scaling_group;grStroke=1;strokeColor=#D86613;fillColor=none;verticalAlign=top;align=center;fontColor=#D86613;dashed=1;spacingTop=25;" vertex="1" parent="ts-POBUd6PFqygl2_fgs-43">
          <mxGeometry x="579.5" y="45" width="230" height="250" as="geometry" />
        </mxCell>
        <mxCell id="ts-POBUd6PFqygl2_fgs-74" value="" style="rounded=0;whiteSpace=wrap;html=1;fillColor=none;strokeColor=#6563ff;strokeWidth=2;" vertex="1" parent="ts-POBUd6PFqygl2_fgs-73">
          <mxGeometry x="50" y="95" width="130" height="110" as="geometry" />
        </mxCell>
        <mxCell id="ts-POBUd6PFqygl2_fgs-75" value="Cart Service" style="shape=image;verticalLabelPosition=bottom;labelBackgroundColor=none;verticalAlign=top;aspect=fixed;imageAspect=0;image=data:image/png,iVBORw0KGgoAAAANSUhEUgAAAOEAAADhCAMAAAAJbSJIAAAAkFBMVEVtsz///////v////1ttD5us0DO5cGAvlZtsj9lsDJusj6/27DC37JqsjposTb9///q8+Ot05ZgrSny+O2SxXKey4F5uU36/Pin0ZLb7NGSxW3M5LmJwmjm8t6jzoiy1p/W6cm826mCvV58ulDq9N9driPt9em42KKUxXj3/PTf7dW/2rGDvGDb7c6azH7C3q4Z63B3AAAWjElEQVR4nO1dDXeiOhMmkChQExC/qtW22q2t3d7u//9370xAJRTIRGS7fU/nnt6792xFnmQymY8nE4/9v4v31S/Qu/wg/P7yg/D7yw/C7y8/CL+//CD8/tINYQA/SXCdN/n88CDBx3d9TCeEvn6PgPWGEX4Sv+NDOiEMYIR9HyH2gzFJOs9gR4QJYuxrArUE3dW04xzqyUvfBv3IW5qD/DqEKL9eprsn4Yk+ZLibvmy6vuClCAO9CtOtzCIpeU8iuYwytU1hNSQJmNbgEqtzIUJtydOHufLi2OtNQDVCHkbzhxQgBoDvEo29GCFjdzslQ3iLHoXD43ko1W6UL/q/iNBn6Xsm4RV4nwC9EOZR8NiT2e5io3MhwuRxqDwB8MJe59ALYTVqM6Z2jxca1QsRjgRMYNzvBKKSenoV4FBKMbpsEp0R+j4s+NFzz9jq0D7f5d6To0V1Rgh7RDIQfc9eLUQx0LuG4wu7a2nA0rn8+wBDj8t5mnuK/SIELRFfABAllnOE57tBvADhn4yHXwEQZjEaoaff8zpk6a53G1orsPd7ErbFpL85BBsGi2BxG4G+fAVElGgcuIbEDgghHAWQSwH4vkRLUbhYuu6KTlqKdmyl+nbVWkWterU0EE8MshBW/JdpKfeyOyd8busQjNhkLUFTvkxJ4bvletIbQpzCkUQV/bIphK+O5ag3hLATbeZfuARzEXy+Aee4F4Qwh/eq32DJLqBC0T0ONtncuMwhSyP+xQjB2eA82sC7kFOpLnO4mKqvszFnkJ6cHhxy0C4IMWj64jkUqKYxhFH0XdEB4WH65avQyw2dXB3o7jcNoc/8hD1kX+Ny10j0QJ8YGkL0die4C/aceCKLnJCNKQlhgNnYcQQ68oV7vSFqTK7Y0BDCDvsoMK/3b6gpj2PxSARI1VK2mGHq4t8AiK8hZ4erIoSdIs/NiI5qKkG6DxPsyqGkTiIVYcfsU6gHXj2tX1+nQ9k5kwXrJRZYnSV4NiSECdt2zD6BsyUUv1mCai02253qpgoCIUbbPK9yFYQs3cmOQSG80fsbK4gNh3XU6WHgngqBWSlK3o2EcHGreEcrw9UrRq4JCmAcd1JUIdCwq9sFhalBQrgUMuy2FYqY74u6vx8AxMO6C0TBweKBj7xkwZW0dKW8jjtFCH5W4vu6Ng4YfTbIujwOq8PUrJQFYYB60PFtUOTTvjLeV6h9iOyO2dOnNoQwSJNOGlUghA3afJdb1fmhvMhKtauqBSEsGsw+dX4Zta2+x03U1YlHJ3KESf52VbUgTFiwuUYtLbqpxgKjqGvaNeSxnCPdpn0tWueQ3XdXJ40w8Y1JHCkw+N2UI+ZhdG/dE61z+CtyeQ0upVI1cx79rj75TyQqaS0uVRTVfbhNog2qf9tCbEYIIRO4fYspdRXir0lvPRvfvs5V6JleHsxhRUaGWxOiX/c+244eVnOJnwxj2vYkp7Dtt1b22+YQS+YDQTUIIuTReoAxTbIcy9jUQBtCpJXc7PXALme4OVG/luvi/kUI9eYcHFaSaA6EJ6MZviNys4JlZrqxFoTck/MlDika3MVDpvWGVuLCrNSFu4WPEMdRyEOamkp5c+Rjws8jd5jDmHsAEN8T6WuMPQ5hXIlprxi8pct2C10vn3AqPk/u7nTgkDAfqb0Lc0dvRyhCNdbeRYJZPXhf3KEEMTfLeXtWqnkOIbyEKeREh1RicVZX4DSlyGePczpCHmcTjDswpg0073GzjoimBivfbVPYvluYb9k4iPCP2h1YaWeC/y5WZbtv09J5lek0ec3/3qpDMNGYlcJhqZ/JNktzmNE2e8HlKmVF4KA/i0vqlY4wlNPK62EtVsGGE1pLQdwL1Wyhw7J6g9NmaQaSFteHCrmR5VoJLkcHhJ6aVUstAUvXCtXDmj0JBVcDXb51nEOG3CfSWufoHeoZPL0lOsNTOkIBWlr5blADrJMQUgv4OyJhjUciWrR0S0ymSFgH+umnsmUCW/BmV343i6UJs4M5A/iEnD9HyF+Ce7pljQXF5jlMd5KUueBq5Ofxe3AKkADwbyefBl7ReEF0GH22jAibIqoxb6EQ1yAscZ8sa0DrUPSCse0JG3qJuKMNjdGxIZTDN9wtqkzuAaxDkk+lmrlSNQjp3CdcpmoalBiR+D24r01WysXz5qFcp3XB+pi4Ulq4UrVaSuU+wSKXTxudWjo+3deLMZ1KJ887DvUsVvkH8P/U8Ls5K9WAkMZ94iIEK4PnPU42Ru/2A6kqbqUFoSZyI1Hm0ywS2botXKm6dUjnPvHoluloIjjt9TDuEL57oVNsgQhhW3tYmL/jg4u7pSFs5krVzSGZ+xSHzwucwpK7BkhH2pU1NdympUKbLbAXn8aamDtu5krVWRoC96nAjiWu40vlmpqwl6zms9YIGAVC6NkB1eBoFhP9LrBlEAKcRq5U/RxauU/oLgoh0SEsDzn88zur020SQhi3aMbQvzw9FMPpW0WIMpq5UnVzSOE+oVrF88fyRoGrho14raNFQYhnxLR3UqoK6uONc7v32MKVqptDCvcJfiFWtzDeJ4/eD7Szzms3UQpCgRlQvZxOz4RdyMdRo4SKTVypOoQE7lMIL+NlexaU1iFY+tST1SwbHaGnB0eW9+78+AihrNDClapBSOM+8Vih3p/mEM3D4lVhefZCLcVzYrgvPhm/B1oCMYBtDlu4UiZCOvcJdEKYB1ix7tkYMdMsDYrg0T0OnHG+iVoVr+NKmQjJ3CekHdya+3PC/mv2gegIPfCTBswv4QPtf6FWxWu4UgZCF+4TpmJNgGzXnFt1mEP0MQ/M9FFT6vGAGq6UiZDMfRIxptONz8JW3/wxOkJt9sfML5Ubg2pusklquVIVLaVyn2KMWU1J31VzKt5BS7UbPSnnfbAoTipT1XKlqraUzH16ruQd2LZtmJ20NBaobMHJBQO9m7xTvNNarlQFYcCJ+TU5ZSfDrFPx4HnUb/aOCLXwIsmfPx7/pdXUOu5HrlQjwgR2HmICMborOY+B/mTsNauSI0JPvZSLgvBN/2X6YHf7Wx25Uqx8ct+cw3RHZHLHMj07pLrgIFqz8K4I5XBfXojwE1EKKCeuVGkvNRBqk0Wyy+rjcApV/OTIj2nO3roijEs6kmjKy4eqRtWf5cSV8pMGhMh9omkpciuOr+BjFhGr/S0NFlwRenJ30lJ0TmEICZN45Eq9lbMhBsI19eQdj0vbPa7C/Xv7+XxnhF52svr5odFUcoIziSW5UK5Zwzq8I3OfMAN70gRdDLcotztC9WLuRpOVJBYUY8/gSnnneaDtOVq0Q3NSBNgsmn3uXFwRhp56NY3+YqyoBwWEfC9xpY5zCBMxohM9IHAqxWGJHuBWcUXItUk05CYiBhiwGOXNmSt1mkO2cWBhRX9K2RSMfG0rxBmh51U8e3SYaWoagi0RZ67UcQ4DNnM48xM9lqJ7pBbYVrDzbgF6UvnI8olO7OFYkCx8rpOl2bgQk7NNwQwpINqW4SVzWE2egjcSUolwIs5OXKmTlk5ptbS8mPVced2Vbf7dbWmopkaUECyqtZBWka8s8A1Ls5xTxwcHkhvfHbAnGzXMGSF48cO98S3sVbn0AQDf3UAYvChySyvO5bD83WCyMpsNuAAhnxsIfXCbXBoBqJdiFRUIcS8kG5pQvlde19qQx11LOS4lQ8bK5cyH3E1yU1Mg3Cj68Agu7039Sa3O0AUIRZaa3zKmZPfPoooBKhAOspD6cbBoYIuN797U1irK4ooQyyJRJVrfRi5ndONowMo7/ofy6GdGhPo0hzFlHRa7S+4qIAu6+UMc3PioUi4bRC6WhsuP3G0rEO4kfJoY3munzZANRUv9U9ZDcxlGtmhIKANhwO6cjhKhsSgjHGJFmzyHclZFaFMf9VDqYaXbA+IcNn8j7HxxVbPvSGH+ScDg628sED7zkOi5Q5gbV+fwl3UO5XRyzlwhQxPWResX8rp16IIwDJ9ZeT9sSeZ+EuHJiqWx21Ket+k6fgD+OOc8bk4ocC6EuVskrrbUy/It/ziHDosY2zUZ3x2wZ5ulATU9xVsBulODTLQzPYRn7haJ3fmtPMCcw+f6sl+DgIqXcj1JwjKr/vDsTR/ACfLMXDq0Toc0fRpMBTmd8kQtLa1Dh0/i60qMTZJTJoo9xTZ+GMTdqWbb+Ojx718t84ERkOmXVgir9neMBSvHFkNJVVOB+SCMLU48KHjnD9uXY0VheLIc+531ZWFIpiZBZrFy6k/FeVFpLRBC7EQ9hSR4Xjk5VdsDn0DUjHkos/XjfjLZv80iadM38Tk+3Lu4zpiz/jC0dByFVG48SvQfO1fMYR0u7Vk65GjISKxWT4DP+lVIH6psh29PVnNmCNi2sqVZZtR+CTESmKI/pa8GpKmVAVcsAi7xqLo9Vo95XJencZFsafil6ZNTmzm95ZfyyofpFU7wmSLfK4bmhuqW5n1dYzDFfklLFzNqxSL/evM8VcBernGEz/yKVxMg5kupn8Vsm7o/GAjZjdMr8h36G8Uc4rYxuHIfPo7UY0MmU/IM6P7K6nclm+h22FfTFI5ailO5p+fLaV8QZpVqNSx16iiiIdNp7/I6pBj8spTP9eoTUlc4uFyWENwmk007IMe/us85vCBLyrtFwAKnfhxqVmIfoQf31v1EuyHRXeXs971qKTGbEgseRngCq4wQBynPCBL7s8RphTkOXhH5MGa7QFjhhcPJqRzv6zqSTpSQIKKLrc5bzVFLA7ceO2FU2a1Qi67SUDHWuQ31Epy0NMHsgIOOoGvxcfiEMMGTag59kuSqQjYBX/M65jQG94fP386HYBKMtpxCJyS+VhEmiWOvK55VaYB31wGIkT8euDyf0EZ2vENtEw8JlblfR0uDKuHQr0w7buYkurxEmyBTWE3Kfbtxv9VWhjr6csI+MRXQP3HpORfzKq8Ni+RXmUVkbI/zuTuOPjo0+u9IXk1scjANpoJL30Dc9DFkP2fQ2FQnzsknh+sFPMrPRydS4pFg/e8Kj9ZkDLn0ftQtfpJTpA924W1OOvXZLmBoKvxC+AIiv7SWC20iJPfvxJjd26Ml98/sNn8bkU59tksc3Zt0dFBWetXpM5+9wmtz6MEq8qOtZ65+whb3EeXUZ7uYpTstfyLaqNWeSajyS6l9dAXEwegcl0IoZFATT322AXx6q57vokcFdedKzDkk90LmYYgEMs3aOyop2vdl1DWM4nf5EdmS3EhyJ5uas0HVOXTqZ40HgCu06kftFcU6CHUGh4vwT/lqAP30dC6pFIW6810mz9uxJ7n8WFSY8T4boYuMFEFne8PhU+pBv8QxT4msQHaLtoF2qrzujF6FI+zYV14NKq4bWnZ0G/COH3eEMZaoSvxXzdlJW4tU5hPqzll+Quh0N0AcVU+Zg70ZaXvqvmXwnN6LjX/O4xUc1rAKqQ+rOytrWhrH+x0gDruv3GyDdNfHyIX5cpKYP+TdUU4uKYLdyjikDljteefKeQvqOfXiifBjxon6OA9bzp0K0rlIOfKLA7fHDTspCPIelblcd2a97uwatdeAfi+0zkn1jqLJfZGctD6G550/BZe7vdn5Qf9pwYn7c3PfgdqTzuSslAA9XeV9d0xZ4LV6+Vk0yxPCPCiX40k5x4x/gukIbunK0NQ7ova0OrXnh4cdMXWsUtENmIy3dUagLeOvYMle/LfIK6cnhAF2KrqLqWZU9/9grKb/Rx1Cet8W/HYcusq+n3ur23dlrdlhMCLVbltEqOfOBfqQ2UBJanaruYdLrZZSe++IHCVGisZzsdYLOjb582Q7GhmHXOEFjoUveeqv4WMl1YHT29KHp6G3Ca1/kn4y96SoEJYx7aPLGvuRyFRzhgp8mCx6SbF5Vn6rcEkXsAWPFFQtbemlVHta3akHlndqg1XbIGZwvxNK1zb56WWKwVFyOLurvpBe0Wi8sMeQgzT2w6rvOODUxwx8bTlc6nGplf1gPJUR1kVjzHPpDVyqLN7dDt6K6SqLvm8U/WO3ho2NPc3qLQ1jDr3owMnmcv5LuyA1T8PFf0gfx6t59pxpeX4Wq/Eg3S/yFVtxijC2SNjk1Yl50dKXrt7SOPUT1LGSnD8mtY2ayj4KS39tNum58unnf+NXfx88x7m11G9IS2/Bekvj1BOSY7wPa7G+fUqQ9x1ixsleHUDouUpKjPji97XbJ134Pa39IesQOvb1DLnmUUq+rR/Eon1NUFS78iY9uLv7QRB8asyJcAe6KY0LhWm6+JQZaENYfNMvB96wRpq9poXvXe6KRZYgV1HYjCPX7Hlbn9ZGhK79dfFknNot9djg/DQt/GYp1vHblHiOtRBbr92WOXTskczxCPv8AZUx70XmLJort51LOtPVI/RLbplD5z7XWBeLxGahXTDnO1915Av+eoixlMPA2npeN/fcc+9Vrrt+SH67ydu0uiKE78OYizver2jrW97SVdCx3zzPz9LzWD1tF80eTovcgZ8GTk9IzDAcx9XSe97S7fqiOwN4xB8m7Ngi60zwNt4i0T/ooOeLdjIQzukd0v0BFoSX3vsQ7bbFfR3JsXNuJcLSwZJ/dHfSm3V+nt+hcEW8A8KC8NK7O7iUT/d660AISZ5nN2NI7bDmo7+53UUwkk4WhnyPh+1+iwvvX4ljLuNMPmwmObaEfTIFhRM32TzMIYaEQBDf14mwQruLxdp1/rI7dHSdFLZitXsYLPNyeM0WudgMXlYKGwiFOhqNq43oW4V4n47t5oAL70HSR/1iZOpG/Gl1/+e/T/dPTZaj2+kOouAQO3iKnDLpVj6m3Ylkv4Wl611WHG8EgJhw/v4xG/+5GY0eZvfrIYSJkZKdSnHEe61sCK93HxkAVSpCUR2hHR+I/XaqhBBnhFe+Uw4bloWY+bvGLYPE++VsCK94L2BxOA4Ld477QpOQ7gi0aul17nbUgMJSjeUqNEbSPY82hNe8n7PYWIs8cneh3dVpt6Xs37hjtSwtPQQvRPgv3JNbFqc7c2kI/427jstCv/eYhPBfuK+6LE53V9Pm8F+4c7wsLveP0+bwn7g3viwOd8hT59CJK9W7NPe2vhChK1eqb2npT34hQmeuVM/S0mO+A0InrlTfQru90gGhK1eqb2m56+FChK5cqb6l5b6OCxEW4sKV6ktsd650QujAlepT2u/N6YTQgSvVnzRzn66BkM6V6k9s91d1QkjnSvUn1jvIOiFEoXKl+hLrPXLdEDpzpfoQy12AnRC6cqV6Edt9jp0QunKl+hDrnZydEDpzpXoQ672qnRAy1/tzry/2u3G7IXS9A/n60sZ9ugbCQtJIVzP/Mjg8AO1Fexdv5kKECRobfXHRX940uAixG4gzx8N9DpPg8KqPIv3d5QjeTDRblPn8vSH0fbzKNu52jtJdQh69TpjB5+8JYZCTpf56HCWi9UQvwfaq/RUQFjTzKf3O5etINM3PLDgvxAsQ5jC3nm6Ahv5Nbxsk9gfLq6rSe/l89KhXhJhdXEdc31uI+PowO/G53BWt9RE5xxXYCSFuupOHZ8mxIh/G/RhWnrOIpMpeDpq16s53vBxhrjKH8U4qiWSYvkJ/JHC8jw96TC+grHZAqA9S4rGf3/fDLJISe8pcVyQ2r1PZ8PZmnyekkfN+AfH44jnUVGf802L/9nK/G/Yi9y9v6SKnK+eNQS951Utt6feRH4TfX34Qfn/5Qfj95Qfh95cfhN9ffhB+f/lB+P3lf1U9UynlLyZKAAAAAElFTkSuQmCC;" vertex="1" parent="ts-POBUd6PFqygl2_fgs-73">
          <mxGeometry x="90" y="113" width="50" height="50" as="geometry" />
        </mxCell>
        <mxCell id="ts-POBUd6PFqygl2_fgs-76" value="" style="shape=image;html=1;verticalAlign=top;verticalLabelPosition=bottom;labelBackgroundColor=#ffffff;imageAspect=0;aspect=fixed;image=https://cdn1.iconfinder.com/data/icons/unicons-line-vol-3/24/docker-128.png" vertex="1" parent="ts-POBUd6PFqygl2_fgs-73">
          <mxGeometry x="140" y="72" width="40" height="40" as="geometry" />
        </mxCell>
        <mxCell id="ts-POBUd6PFqygl2_fgs-77" value="EC2 instance" style="points=[[0,0],[0.25,0],[0.5,0],[0.75,0],[1,0],[1,0.25],[1,0.5],[1,0.75],[1,1],[0.75,1],[0.5,1],[0.25,1],[0,1],[0,0.75],[0,0.5],[0,0.25]];outlineConnect=0;gradientColor=none;html=1;whiteSpace=wrap;fontSize=12;fontStyle=0;container=0;pointerEvents=0;collapsible=0;recursiveResize=0;shape=mxgraph.aws4.group;grIcon=mxgraph.aws4.group_ec2_instance_contents;strokeColor=#D86613;fillColor=none;verticalAlign=top;align=left;spacingLeft=30;fontColor=#D86613;dashed=0;strokeWidth=2;" vertex="1" parent="ts-POBUd6PFqygl2_fgs-73">
          <mxGeometry x="25" y="52.5" width="180" height="175" as="geometry" />
        </mxCell>
        <mxCell id="ts-POBUd6PFqygl2_fgs-79" value="Internet Gateway" style="outlineConnect=0;dashed=0;verticalLabelPosition=top;verticalAlign=bottom;align=center;html=1;shape=mxgraph.aws3.internet_gateway;fillColor=#F58534;gradientColor=none;labelPosition=center;" vertex="1" parent="ts-POBUd6PFqygl2_fgs-4">
          <mxGeometry x="420.25" y="-27" width="69" height="72" as="geometry" />
        </mxCell>
        <mxCell id="ts-POBUd6PFqygl2_fgs-80" style="edgeStyle=orthogonalEdgeStyle;rounded=0;orthogonalLoop=1;jettySize=auto;html=1;entryX=0.5;entryY=0;entryDx=0;entryDy=0;entryPerimeter=0;" edge="1" parent="ts-POBUd6PFqygl2_fgs-4" source="ts-POBUd6PFqygl2_fgs-68" target="ts-POBUd6PFqygl2_fgs-17">
          <mxGeometry relative="1" as="geometry" />
        </mxCell>
        <mxCell id="ts-POBUd6PFqygl2_fgs-82" style="edgeStyle=orthogonalEdgeStyle;rounded=0;orthogonalLoop=1;jettySize=auto;html=1;entryX=0.5;entryY=0;entryDx=0;entryDy=0;entryPerimeter=0;" edge="1" parent="ts-POBUd6PFqygl2_fgs-4" source="ts-POBUd6PFqygl2_fgs-56" target="ts-POBUd6PFqygl2_fgs-17">
          <mxGeometry relative="1" as="geometry">
            <Array as="points">
              <mxPoint x="185" y="605" />
              <mxPoint x="455" y="605" />
            </Array>
          </mxGeometry>
        </mxCell>
        <mxCell id="ts-POBUd6PFqygl2_fgs-83" style="edgeStyle=orthogonalEdgeStyle;rounded=0;orthogonalLoop=1;jettySize=auto;html=1;" edge="1" parent="ts-POBUd6PFqygl2_fgs-4" source="ts-POBUd6PFqygl2_fgs-73" target="ts-POBUd6PFqygl2_fgs-17">
          <mxGeometry relative="1" as="geometry">
            <Array as="points">
              <mxPoint x="725" y="605" />
              <mxPoint x="455" y="605" />
            </Array>
          </mxGeometry>
        </mxCell>
        <mxCell id="ts-POBUd6PFqygl2_fgs-85" style="edgeStyle=orthogonalEdgeStyle;rounded=0;orthogonalLoop=1;jettySize=auto;html=1;entryX=0.5;entryY=0;entryDx=0;entryDy=0;" edge="1" parent="ts-POBUd6PFqygl2_fgs-4" source="ts-POBUd6PFqygl2_fgs-84" target="ts-POBUd6PFqygl2_fgs-68">
          <mxGeometry relative="1" as="geometry" />
        </mxCell>
        <mxCell id="ts-POBUd6PFqygl2_fgs-86" style="edgeStyle=orthogonalEdgeStyle;rounded=0;orthogonalLoop=1;jettySize=auto;html=1;" edge="1" parent="ts-POBUd6PFqygl2_fgs-4" source="ts-POBUd6PFqygl2_fgs-84" target="ts-POBUd6PFqygl2_fgs-56">
          <mxGeometry relative="1" as="geometry">
            <Array as="points">
              <mxPoint x="455" y="205" />
              <mxPoint x="185" y="205" />
            </Array>
          </mxGeometry>
        </mxCell>
        <mxCell id="ts-POBUd6PFqygl2_fgs-87" style="edgeStyle=orthogonalEdgeStyle;rounded=0;orthogonalLoop=1;jettySize=auto;html=1;" edge="1" parent="ts-POBUd6PFqygl2_fgs-4" source="ts-POBUd6PFqygl2_fgs-84" target="ts-POBUd6PFqygl2_fgs-73">
          <mxGeometry relative="1" as="geometry">
            <Array as="points">
              <mxPoint x="455" y="205" />
              <mxPoint x="725" y="205" />
            </Array>
          </mxGeometry>
        </mxCell>
        <mxCell id="ts-POBUd6PFqygl2_fgs-90" value="alb port 81" style="text;strokeColor=none;fillColor=none;html=1;fontSize=14;fontStyle=0;verticalAlign=middle;align=center;" vertex="1" parent="ts-POBUd6PFqygl2_fgs-4">
          <mxGeometry x="449.5" y="210" width="100" height="40" as="geometry" />
        </mxCell>
        <mxCell id="ts-POBUd6PFqygl2_fgs-88" value="alb port 80" style="text;strokeColor=none;fillColor=none;html=1;fontSize=14;fontStyle=0;verticalAlign=middle;align=center;" vertex="1" parent="ts-POBUd6PFqygl2_fgs-4">
          <mxGeometry x="619.5" y="210" width="100" height="40" as="geometry" />
        </mxCell>
        <mxCell id="ts-POBUd6PFqygl2_fgs-89" value="alb port 82" style="text;strokeColor=none;fillColor=none;html=1;fontSize=14;fontStyle=0;verticalAlign=middle;align=center;" vertex="1" parent="ts-POBUd6PFqygl2_fgs-4">
          <mxGeometry x="179.5" y="210" width="100" height="40" as="geometry" />
        </mxCell>
        <mxCell id="ts-POBUd6PFqygl2_fgs-21" value="" style="sketch=0;points=[[0,0,0],[0.25,0,0],[0.5,0,0],[0.75,0,0],[1,0,0],[0,1,0],[0.25,1,0],[0.5,1,0],[0.75,1,0],[1,1,0],[0,0.25,0],[0,0.5,0],[0,0.75,0],[1,0.25,0],[1,0.5,0],[1,0.75,0]];outlineConnect=0;fontColor=#232F3E;gradientColor=#945DF2;gradientDirection=north;fillColor=#5A30B5;strokeColor=#ffffff;dashed=0;verticalLabelPosition=bottom;verticalAlign=top;align=center;html=1;fontSize=12;fontStyle=0;aspect=fixed;shape=mxgraph.aws4.resourceIcon;resIcon=mxgraph.aws4.cloudfront;" vertex="1" parent="ts-POBUd6PFqygl2_fgs-1">
          <mxGeometry x="70" y="30" width="78" height="78" as="geometry" />
        </mxCell>
      </root>
    </mxGraphModel>
  </diagram>
</mxfile>
